<svg width="70" height="34" viewBox="0 0 70 34" fill="none" xmlns="http://www.w3.org/2000/svg">
<g opacity="0.75">
<path d="M60.3279 15.5131C60.0539 14.7031 59.3429 12.9911 57.6159 11.6651C57.3999 11.4991 54.7339 9.50913 51.8849 10.0461C49.6989 10.4581 48.9039 10.6871 48.9039 10.6871C48.0119 10.9551 47.3809 11.1881 47.0739 10.8931C46.7699 10.6001 47.0069 9.99412 47.0749 9.50512C47.3119 7.81112 45.7139 6.26012 44.8119 5.38512C42.1709 2.82212 38.1529 2.91014 36.4489 2.95614C30.9269 3.10714 27.4269 6.20112 27.0459 6.54912C25.4369 8.01812 25.8809 8.67314 24.3209 9.38814C21.9249 10.4861 19.9069 9.38312 16.8959 10.6691C16.2239 10.9561 14.8069 11.6811 14.3669 12.7021C14.0399 13.4631 14.3019 14.0841 14.5139 14.5841C14.7089 15.0461 14.8639 15.4111 14.5299 15.7311C14.1239 16.1211 13.3349 16.1061 12.2419 16.0851C11.6119 16.0731 10.8979 16.0591 10.0969 16.1181C6.86391 16.3571 5.30191 19.8231 2.03591 19.6471C1.44691 19.6151 0.983913 19.4671 0.745913 19.3801C-0.403087 22.4041 -0.00708574 24.2321 0.493914 25.3071C4.22991 33.3101 28.3559 30.5371 38.7439 29.3421C42.7899 28.8771 44.9299 28.4121 49.3129 28.3351C55.3429 28.2291 57.9039 28.1181 63.0269 27.8951C65.9749 27.7671 67.1689 27.6861 68.1559 26.7241C70.4329 24.5081 70.0419 19.1461 67.2419 16.6341C65.6929 15.2451 63.7249 15.0121 63.5929 14.9981C62.0829 14.8411 60.8949 15.2661 60.3279 15.5131Z" fill="#F2F7F8"/>
<path d="M54.6739 18.8071C56.1539 18.7031 59.0379 18.5001 60.1329 16.3841C61.2129 14.2971 59.8579 11.6921 58.6609 10.3761C56.2169 7.69014 52.4679 8.22116 51.9049 8.31016C49.3789 8.70716 47.7729 10.2081 47.2049 10.7951C47.2279 9.79615 47.1289 8.13014 46.3089 6.32414C44.7179 2.82014 41.5899 1.38916 40.6229 0.965161C36.1999 -0.975839 32.0839 0.527163 30.8849 1.03016C29.6969 1.52916 27.4089 2.52716 25.8529 5.01616C24.8019 6.69816 24.5309 8.34513 24.4509 9.28913C23.7769 8.93114 21.7969 7.99614 19.3669 8.49214C16.6209 9.05214 14.3759 11.2201 13.4629 14.1041C12.0719 13.7981 9.34291 13.4182 6.32791 14.5252C5.38291 14.8722 3.30691 15.6641 1.76191 17.6821C0.734913 19.0241 -0.149091 21.0252 0.379909 21.4992C0.817909 21.8912 1.85291 20.9001 4.06491 19.9531C5.43591 19.3671 9.3149 17.7082 12.9389 18.9122C14.6669 19.4862 14.5179 20.1071 16.1829 20.4931C19.1579 21.1831 21.7879 19.7002 22.4349 19.3352C25.6879 17.5012 26.8579 14.3821 27.1609 13.4791C27.8389 13.9461 28.8289 14.5511 30.1019 15.0791C34.2999 16.8211 38.0749 16.2722 39.2509 16.0592C42.1659 15.5322 44.3199 14.3131 45.5899 13.4451C45.9469 14.2481 46.7229 15.6942 48.2699 16.9092C50.7719 18.8782 53.5529 18.8861 54.6739 18.8071Z" fill="white"/>
<path d="M25.1989 23.6431C26.1369 24.3101 27.2409 24.9451 28.5229 25.4501C34.8009 27.9261 40.9049 25.5441 42.9749 24.6231C44.5049 25.3181 46.7739 26.0391 49.3139 25.5381C50.6139 25.2821 50.7959 24.9401 52.1899 24.6881C54.8849 24.2021 58.8929 25.3171 58.8929 25.3171C64.2689 26.9191 68.3529 25.1761 68.5609 26.0701C68.7639 26.9421 64.9719 28.9801 61.1379 29.7821C56.1449 30.8261 51.6729 30.0851 48.5129 29.1571C45.0389 31.2791 41.9389 32.2821 39.8369 32.7921C35.2879 33.8961 33.5519 33.1411 32.7139 32.5961C32.0889 32.1901 32.1709 32.0361 31.5539 31.6881C29.6479 30.6131 27.5749 31.3581 24.7229 31.9991C24.7229 31.9991 21.8869 32.6321 18.9899 32.9231C16.3939 33.1841 12.1949 33.6071 7.95593 31.6111C6.74393 31.0401 4.92293 29.9871 3.08093 28.0151C3.96493 26.9671 5.48393 25.4951 7.68393 24.9511C11.9059 23.9071 14.7869 27.8351 19.3819 26.5851C22.1219 25.8391 24.0869 24.5141 25.1989 23.6431Z" fill="#CEEAF0"/>
</g>
</svg>
