<svg width="131" height="131" viewBox="0 0 131 131" fill="none" xmlns="http://www.w3.org/2000/svg">
<g filter="url(#filter0_f_7_31)">
<circle cx="66.0002" cy="65" r="52" fill="white"/>
</g>
<path d="M66.0002 117C94.719 117 118 93.7188 118 65C118 36.2812 94.719 13 66.0002 13C37.2814 13 14.0002 36.2812 14.0002 65C14.0002 93.7188 37.2814 117 66.0002 117Z" fill="#EFEAD7"/>
<g opacity="0.54">
<path d="M66.0002 13C62.6951 13 59.4633 13.312 56.3293 13.9012C80.4262 18.4342 98.6584 39.5858 98.6584 64.9995C98.6584 90.4132 80.4262 111.565 56.3293 116.098C59.4633 116.688 62.6951 116.999 66.0002 116.999C94.7191 116.999 118 93.7183 118 64.9995C118 36.2807 94.7191 13 66.0002 13Z" fill="#E5E0CF"/>
</g>
<mask id="mask0_7_31" style="mask-type:luminance" maskUnits="userSpaceOnUse" x="14" y="13" width="105" height="104">
<path d="M66.0002 117C94.719 117 118 93.7188 118 65C118 36.2812 94.719 13 66.0002 13C37.2814 13 14.0002 36.2812 14.0002 65C14.0002 93.7188 37.2814 117 66.0002 117Z" fill="white"/>
</mask>
<g mask="url(#mask0_7_31)">
<path d="M52.6991 39.8743C52.2903 39.8743 51.8942 39.9266 51.5123 40.0166C53.7969 40.5535 55.5001 42.6 55.5001 45.0489C55.5001 47.4973 53.7974 49.5438 51.5123 50.0812C51.8937 50.1706 52.2898 50.2235 52.6991 50.2235C55.5568 50.2235 57.8732 47.9071 57.8732 45.0494C57.8732 42.1907 55.5568 39.8743 52.6991 39.8743Z" fill="#DDD8CA"/>
<path d="M55.5001 45.0484C55.5001 42.6 53.7974 40.5535 51.5123 40.0161C49.2277 40.553 47.5245 42.5995 47.5245 45.0484C47.5245 47.4968 49.2272 49.5433 51.5123 50.0807C53.7969 49.5437 55.5001 47.4973 55.5001 45.0484Z" fill="#E5E0CF"/>
<path d="M52.0804 100.567C51.8071 100.567 51.5425 100.602 51.2878 100.662C52.8139 101.021 53.9518 102.388 53.9518 104.023C53.9518 105.659 52.8144 107.026 51.2878 107.385C51.5425 107.445 51.8071 107.48 52.0804 107.48C53.9895 107.48 55.5372 105.932 55.5372 104.023C55.5367 102.115 53.9895 100.567 52.0804 100.567Z" fill="#DDD8CA"/>
<path d="M53.9514 104.024C53.9514 102.388 52.814 101.021 51.2873 100.663C49.7612 101.021 48.6233 102.388 48.6233 104.024C48.6233 105.66 49.7607 107.027 51.2873 107.385C52.814 107.027 53.9514 105.66 53.9514 104.024Z" fill="#E5E0CF"/>
<path d="M43.5197 81.0675C42.9456 81.0675 42.3901 81.1408 41.8547 81.267C45.061 82.0205 47.4508 84.8924 47.4508 88.3291C47.4508 91.7653 45.061 94.6376 41.8547 95.3912C42.3901 95.5173 42.9461 95.5907 43.5197 95.5907C47.53 95.5907 50.7813 92.3398 50.7813 88.3291C50.7808 84.3183 47.53 81.0675 43.5197 81.0675Z" fill="#DDD8CA"/>
<path d="M47.4502 88.3286C47.4502 84.8924 45.0605 82.0205 41.8541 81.2665C38.6478 82.02 36.2581 84.8919 36.2581 88.3286C36.2581 91.7648 38.6478 94.6372 41.8541 95.3907C45.0605 94.6372 47.4502 91.7653 47.4502 88.3286Z" fill="#E5E0CF"/>
<path d="M33.056 42.3848C32.1812 42.3848 31.3343 42.4968 30.5181 42.6885C35.4047 43.8371 39.0467 48.2137 39.0467 53.4508C39.0467 58.688 35.4047 63.0645 30.5181 64.2132C31.3343 64.4049 32.1812 64.5173 33.056 64.5173C39.168 64.5173 44.1225 59.5628 44.1225 53.4508C44.1225 47.3393 39.168 42.3848 33.056 42.3848Z" fill="#DDD8CA"/>
<path d="M39.0467 53.4508C39.0467 48.2137 35.4047 43.8371 30.5181 42.6885C25.6316 43.8371 21.9895 48.2137 21.9895 53.4508C21.9895 58.688 25.6316 63.0645 30.5181 64.2132C35.4047 63.0645 39.0467 58.688 39.0467 53.4508Z" fill="#E5E0CF"/>
<path d="M85.2903 76.6283C84.2086 76.6283 83.1612 76.7667 82.1519 77.0044C88.1949 78.4249 92.6991 83.8376 92.6991 90.3139C92.6991 96.7907 88.1949 102.203 82.1519 103.624C83.1612 103.861 84.2086 104 85.2903 104C92.8487 104 98.9759 97.8728 98.9759 90.3144C98.9759 82.7555 92.8487 76.6283 85.2903 76.6283Z" fill="#DDD8CA"/>
<path d="M92.6991 90.3139C92.6991 83.8372 88.195 78.4244 82.1519 77.0044C76.1089 78.4249 71.6047 83.8376 71.6047 90.3139C71.6047 96.7907 76.1089 102.203 82.1519 103.624C88.195 102.203 92.6991 96.7907 92.6991 90.3139Z" fill="#E5E0CF"/>
<path d="M90.7855 53.9247C90.1044 53.9247 89.4452 54.0117 88.81 54.1614C92.6139 55.0553 95.4491 58.4626 95.4491 62.5394C95.4491 66.6161 92.6139 70.023 88.81 70.9174C89.4452 71.0665 90.1044 71.154 90.7855 71.154C95.543 71.154 99.4002 67.2973 99.4002 62.5394C99.3997 57.7814 95.543 53.9247 90.7855 53.9247Z" fill="#DDD8CA"/>
<path d="M95.4486 62.5389C95.4486 58.4621 92.6135 55.0553 88.8095 54.1609C85.0056 55.0548 82.1704 58.4621 82.1704 62.5389C82.1704 66.6156 85.0056 70.0225 88.8095 70.9169C92.6135 70.023 95.4486 66.6156 95.4486 62.5389Z" fill="#E5E0CF"/>
<path d="M106.458 67.909C106.022 67.909 105.6 67.9648 105.192 68.0606C107.629 68.6332 109.445 70.8156 109.445 73.4269C109.445 76.0381 107.629 78.22 105.192 78.7926C105.599 78.8885 106.022 78.9442 106.458 78.9442C109.505 78.9442 111.975 76.4738 111.975 73.4269C111.976 70.3794 109.505 67.909 106.458 67.909Z" fill="#DDD8CA"/>
<path d="M109.445 73.4264C109.445 70.8151 107.63 68.6332 105.193 68.0601C102.757 68.6328 100.941 70.8151 100.941 73.4264C100.941 76.0376 102.756 78.2196 105.193 78.7922C107.629 78.2196 109.445 76.0376 109.445 73.4264Z" fill="#E5E0CF"/>
<path d="M104.158 44.8435C103.74 44.8435 103.336 44.8968 102.946 44.9887C105.278 45.5369 107.017 47.6259 107.017 50.1252C107.017 52.6244 105.278 54.7134 102.946 55.2616C103.336 55.353 103.74 55.4068 104.158 55.4068C107.075 55.4068 109.439 53.042 109.439 50.1252C109.439 47.2083 107.075 44.8435 104.158 44.8435Z" fill="#DDD8CA"/>
<path d="M107.017 50.1252C107.017 47.6259 105.278 45.5369 102.946 44.9887C100.614 45.5369 98.876 47.6259 98.876 50.1252C98.876 52.6244 100.614 54.7134 102.946 55.2616C105.278 54.7134 107.017 52.6244 107.017 50.1252Z" fill="#E5E0CF"/>
<path d="M47.7997 23.1462C47.2736 23.1462 46.7645 23.2137 46.2736 23.3291C49.2124 24.0196 51.4027 26.6518 51.4027 29.8015C51.4027 32.9511 49.2124 35.5829 46.2736 36.2738C46.7645 36.3892 47.2736 36.4567 47.7997 36.4567C51.475 36.4567 54.455 33.4773 54.455 29.8015C54.455 26.1257 51.4755 23.1462 47.7997 23.1462Z" fill="#DDD8CA"/>
<path d="M51.4026 29.8015C51.4026 26.6523 49.2124 24.02 46.2735 23.3291C43.3351 24.0196 41.1449 26.6518 41.1449 29.8015C41.1449 32.9511 43.3351 35.5829 46.2735 36.2738C49.2124 35.5829 51.4026 32.9506 51.4026 29.8015Z" fill="#E5E0CF"/>
</g>
<defs>
<filter id="filter0_f_7_31" x="0.000244141" y="-1" width="132" height="132" filterUnits="userSpaceOnUse" color-interpolation-filters="sRGB">
<feFlood flood-opacity="0" result="BackgroundImageFix"/>
<feBlend mode="normal" in="SourceGraphic" in2="BackgroundImageFix" result="shape"/>
<feGaussianBlur stdDeviation="7" result="effect1_foregroundBlur_7_31"/>
</filter>
</defs>
</svg>
